<svg xmlns="http://www.w3.org/2000/svg" width="512" height="512"><defs><linearGradient id="b" x1="0" x2="1" y1="0" y2="0" gradientTransform="rotate(32.3 -53.514 50.076)scale(138.118)" gradientUnits="userSpaceOnUse"><stop stop-color="purple"/><stop offset="1" stop-color="#ffafff"/></linearGradient><clipPath id="a"><path d="M0 0h512v512H0z"/></clipPath></defs><path fill="none" d="M0 0h512v512H0z"/><g clip-path="url(#a)"><path fill="url(#b)" d="M38.87 141.658c-8.954-.586-12.167-.974-14.417-1.74-6.243-2.126-11.438-8.953-14.058-18.477-1.369-4.975-1.64-7.358-1.634-14.323.008-7.036.31-9.76 1.74-15.679 4.693-19.407 16.921-34.045 29.673-35.521 3.736-.433 3.658-.47 6.958 3.387 1.58 1.845 3.41 3.97 4.066 4.72 1.54 1.76 5.5 6.865 6.43 8.288.396.606.794 1.1.885 1.096.09-.003.42-.213.733-.466.675-.546.66-.59-1.39-4.044-1.837-3.094-2.681-4.614-4.693-8.447-1.178-2.245-3.778-7.698-4.533-9.507-.368-.882-.859-2.052-1.09-2.6-.448-1.061-1.87-5.884-2.31-7.835-.39-1.724-.334-6.718.09-8.192 1.523-5.287 6.7-10.753 13.123-13.855 1.834-.886 6.647-2.332 7.76-2.332.561 0 .561-.002.561-2.963v-2.963h18.863l2.528-2.655 2.527-2.654h7.485l2.528 2.654 2.529 2.655h16.753v4.088l1.582.43c10.132 2.756 18.327 13.27 21.71 27.847 1.246 5.374 1.638 9.188 1.647 16.03.01 7.937-.549 12.878-2.311 20.433-5.696 24.412-20.711 43.32-37.01 46.605-1.009.203-2.973.37-4.365.37H98.7l-1.634-1.79c-1.995-2.188-8.682-9.945-9.325-10.819a71 71 0 0 0-1.558-1.975c-1.61-1.98-3.717-4.74-4.645-6.086a55 55 0 0 0-1.816-2.444c-.551-.693-1.002-1.351-1.002-1.462s-.167-.395-.371-.632c-.352-.41-.41-.407-1.172.066-.44.274-.763.57-.716.66.047.088.746 1.374 1.554 2.857 1.265 2.323 3.786 7.627 5.012 10.546 1.564 3.722 2.331 8.023 2.003 11.223-.386 3.772-3.308 7.67-7.993 10.662-3.238 2.068-8.056 3.66-13.672 4.516-1.754.267-21.403.53-24.496.328m28.95-5.782c3.431-.798 5.282-1.874 7.65-4.447 2.41-2.616 3.058-3.714 3.606-6.105.384-1.672.387-1.927.038-3.757-.582-3.056-1.465-5.423-3.917-10.498-2.812-5.819-3.247-6.59-3.591-6.37a753 753 0 0 0-4.138 2.793c-2.128 1.442-4 2.705-4.16 2.805-.2.125-1.012-.971-2.557-3.452-2.249-3.608-2.262-3.637-1.777-4.05.269-.23 2.287-1.629 4.485-3.109 2.57-1.73 3.957-2.808 3.886-3.02-.13-.384-.609-1.168-4.896-8.023-3.122-4.992-3.23-5.131-3.728-4.792-8.322 5.676-11.185 7.588-11.363 7.588-.21 0-4.1-6.162-4.387-6.948-.107-.293 1.25-1.332 5.604-4.294l5.744-3.907-.86-1.252c-2.43-3.534-5.433-6.894-6.713-7.508-.822-.395-1.377-.445-3.822-.35l-2.861.113-2.297 1.988c-9.482 8.21-13.155 15.341-14.986 29.1-.582 4.373-.588 14.154-.011 17.794 1.218 7.688 3.195 10.843 7.38 11.777 1.757.392 3.241.348 7.196-.216 5.917-.844 6.433-.752 9.332 1.675 4.281 3.583 7.837 5.627 11.216 6.447 2.74.665 7.11.673 9.926.018m-16.934-11.858c-.546-.113-2.181-.615-3.633-1.115-4.315-1.486-6.35-1.412-10.486.385-.947.411-1.737.72-1.754.684s-.32-.478-.674-.984l-.642-.92 1.505-1.555c1.303-1.346 1.573-1.785 2.008-3.268.643-2.192 1.062-8.503.84-12.626l-.162-2.993-1.203-.587c-1.871-.914-8.365-6.239-8.365-6.86 0-.103.343-.593.762-1.088l.762-.9 2.344 2.122c2.53 2.29 5.43 4.453 5.653 4.217.076-.08.228-.98.336-2 .216-2.028.643-3.125 1.446-3.718 1.233-.91 3.088-.016 4.52 2.176.807 1.235.938 1.62.938 2.753 0 .949-.137 1.511-.49 2.014-.675.958-1.873 1.775-3.074 2.093l-1.007.267v5.741c0 5.89-.293 8.908-1.05 10.815l-.358.905.763-.18c.419-.098 1.712-.167 2.872-.153 1.79.022 2.559.18 5.074 1.038 3.844 1.311 4.77 1.428 7.326.923 1.138-.225 2.095-.375 2.125-.333.203.274.543 2.327.408 2.469-.226.237-4.152.945-5.06.912-.402-.015-1.178-.12-1.724-.234M41.69 98.966c1.21-.659 1.068-2.081-.328-3.301-.463-.406-.552-.182-.746 1.89-.183 1.961-.11 2.056 1.074 1.41m64.565 9.94c4.168-3.625 5.912-5.33 8.266-8.084 6.727-7.869 10.24-16.863 11.901-30.468.613-5.02.841-11.666.573-16.677-.75-14.043-3.728-20.569-10.019-21.963-1.892-.419-5.444-.328-8.954.23-1.74.278-4.33.57-5.754.651-3.246.184-3.653.015-7.495-3.127-7.652-6.259-12.482-8.46-19.37-8.827-6.035-.323-12.06 1.385-15.917 4.511-1.82 1.476-4.975 5.464-5.827 7.368-1.011 2.26-1.335 4.611-.964 6.992.32 2.05 1.172 5.022 2.253 7.853.847 2.219 4.432 9.663 6.123 12.716.582 1.05 2.062 3.756 2.702 4.939.257.475.651 1.141.876 1.481s.672 1.117.995 1.728c.545 1.032 1.12 2.019 4.248 7.284 1.05 1.77 8.516 13.606 11.523 18.27.645 1 1.671 2.52 2.281 3.379 2.81 3.956 3.391 4.763 4.049 5.615.386.5 1.072 1.401 1.523 2 1.376 1.828 4.049 4.701 5.04 5.418 1.433 1.035 1.944 1.127 5.79 1.04l3.569-.08zM92.368 96.872c-.246-.278-1.278-1.865-2.292-3.525-1.014-1.661-2.698-4.409-3.742-6.106s-4.626-7.531-7.96-12.963a7971 7971 0 0 0-7.284-11.852c-.672-1.087-1.42-2.32-1.66-2.74-.241-.421-1.036-1.7-1.766-2.84-1.81-2.827-1.521-2.946 2.33-.96 5.67 2.927 9.486 4.358 19.392 7.271 2.45.72 5.641 1.68 7.092 2.132l2.64.822-.061 15.565-.06 15.565-3.091.069c-2.86.063-3.124.03-3.538-.438m9.665-16.857c-.063-.172-.086-3.305-.051-6.963l.062-6.65 1.486-.561c2.907-1.096 4.058-1.872 6.617-4.464 1.375-1.392 2.664-2.531 2.866-2.531.31 0 .24.507-.451 3.271-1.689 6.761-4.554 17.786-4.676 17.994-.211.36-5.72.27-5.853-.096m.045-18.87c-.083-.088-.151-3.588-.151-7.779v-7.619l.563-.226c1.146-.459 3.529-.78 4.616-.623 3.423.496 6.62 4.715 5.852 7.722-.334 1.307-1.914 3.128-4.045 4.664-2.121 1.528-6.631 4.076-6.835 3.86m-4.02-.566c-.257-.115-2.261-.787-4.453-1.494-5.213-1.68-12.745-4.384-16.22-5.82-13.911-5.755-19.064-11.802-16.528-19.4 1.539-4.61 6.075-8.145 10.947-8.53 5.493-.434 11.81 2.414 23.266 10.489l4.044 2.85v11.073c0 11.704.037 11.318-1.055 10.832M72.86 93.142c0-.085-.236-.47-.524-.857a46 46 0 0 1-1.348-1.977L68.523 86.5c-3.126-4.826-3.426-5.31-3.64-5.863-.239-.613-.743-.725-1.113-.247-.173.224.135.86 1.122 2.316 1.377 2.031 3.183 4.835 5.734 8.905 1.222 1.95 1.452 2.198 1.816 1.96.23-.152.417-.345.417-.43m26.255-81.086-1.982-2.098H91.25l-1.983 2.098-1.982 2.1h13.81z" transform="translate(-10.419 1.806)scale(3.467)"/></g></svg>